
<svg fill="red" style="transform: rotate(-45deg)" width="68px" height="51px" viewBox="0 0 68 51" version="1.1" xmlns="http://www.w3.org/2000/svg" xmlns:xlink="http://www.w3.org/1999/xlink">
    <g id="Page-1" stroke="none" stroke-width="1" fill="none" fill-rule="evenodd">
        <g fill="currentColor" transform="translate(4.000000, 2.000000) rotate(-45deg)" fill-rule="nonzero">
            <path d="M36.2,5.2 C35,4 35,2.1 36.2,0.9 C37.4,-0.3 39.3,-0.3 40.5,0.9 L58.7,19 C59.3,19.6 59.6,20.3 59.6,21.2 C59.6,22.1 59.3,22.8 58.7,23.4 L40.5,41.6 C39.3,42.8 37.4,42.8 36.2,41.6 C35,40.4 35,38.5 36.2,37.3 L49.2,24.3 L3,24.3 C1.3,24.3 0,22.9 0,21.2 C0,19.5 1.3,18.2 3,18.2 L49.2,18.2 L36.2,5.2 Z" id="Path"></path>
        </g>
    </g>
</svg>