<?xml version="1.0" encoding="UTF-8"?>
<svg width="37px" height="91px" viewBox="0 0 37 91" version="1.1" xmlns="http://www.w3.org/2000/svg" xmlns:xlink="http://www.w3.org/1999/xlink">
    <!-- Generator: Sketch 52.6 (67491) - http://www.bohemiancoding.com/sketch -->
    <title>BZK_Logo_druk_pos_nl</title>
    <desc>Created with Sketch.</desc>
    <g id="BZK_Logo_druk_pos_nl" stroke="none" stroke-width="1" fill="none" fill-rule="evenodd">
        <polygon id="Fill-1" fill="#00517B" points="0.173 90.149 37.024 90.149 37.024 -57.252 0.173 -57.252"></polygon>
        <path d="M20.429,65.208 C20.429,65.368 20.527,65.602 20.741,65.535 C20.752,65.53 20.762,65.533 20.759,65.544 C20.727,65.723 20.408,65.886 20.263,65.675 C20.134,65.947 20.164,66.202 20.442,66.352 C20.458,66.361 20.46,66.381 20.443,66.394 C20.277,66.515 20.018,66.487 19.897,66.255 C19.669,66.427 19.702,66.794 19.841,66.919 C19.841,66.921 19.208,67.295 18.634,67.027 C18.253,66.845 17.943,66.611 17.452,66.649 C17.52,65.961 17.864,65.779 18.497,65.681 C19.003,65.599 19.067,65.366 18.995,65.19 C18.823,65.144 18.509,65.303 18.509,65.303 C18.452,65.208 18.534,65.109 18.534,65.109 C18.503,65.071 18.487,64.944 18.487,64.944 C18.841,64.944 18.903,64.866 18.903,64.866 C18.966,64.498 18.591,64.459 18.306,64.657 C18.173,64.54 18.194,64.384 18.194,64.384 C18.155,64.364 18.13,64.303 18.13,64.276 C18.13,64.189 18.549,63.953 18.657,63.926 C18.685,63.804 18.837,63.635 19.282,63.675 C19.335,63.557 19.249,63.126 19.194,63.01 C19.177,62.975 19.202,62.955 19.241,62.979 C19.397,63.078 19.552,63.441 19.657,63.448 C19.657,63.448 20.158,63.186 20.183,63.2 C20.207,63.214 20.277,63.773 20.277,63.773 C20.344,63.855 20.73,63.775 20.899,63.848 C20.942,63.866 20.94,63.897 20.902,63.903 C20.776,63.925 20.373,64.099 20.306,64.21 C20.538,64.557 20.429,65.067 20.429,65.208 Z M15.959,65.493 C15.922,65.545 15.798,65.491 15.751,65.47 C15.741,65.465 15.739,65.47 15.743,65.477 C15.772,65.544 15.892,65.743 16.068,65.743 C16.148,65.743 16.265,65.696 16.298,65.643 C16.298,65.643 16.99,65.867 17.333,65.962 C17.2,66.139 17.117,66.352 17.1,66.583 C16.824,66.413 15.72,65.821 15.72,65.821 L15.378,66.289 C15.321,66.366 15.048,66.167 15.104,66.089 L15.366,65.731 C15.279,65.64 15.071,65.697 15.014,65.714 C15.006,65.716 14.999,65.712 15.006,65.698 C15.04,65.628 15.169,65.411 15.495,65.509 C15.496,65.311 15.2,65.374 15.123,65.395 C15.113,65.397 15.11,65.394 15.119,65.385 C15.199,65.299 15.439,65.104 15.708,65.264 L15.825,65.102 L15.588,64.853 L15.737,64.649 L15.903,64.873 L17.177,63.128 C17.208,63.085 17.461,63.012 17.556,62.991 C17.566,63.089 17.577,63.351 17.547,63.394 L16.293,65.154 L16.558,65.241 L16.412,65.446 L16.1,65.301 L15.959,65.493 Z M25.467,74.677 C25.483,74.674 25.486,74.661 25.475,74.653 C25.31,74.546 25.181,74.396 25.181,74.232 C25.181,73.939 25.743,73.555 26.011,73.555 C26.171,73.555 26.286,73.746 26.594,73.746 C26.754,73.746 26.94,73.682 27.094,73.488 C27.105,73.474 27.099,73.462 27.081,73.465 C26.953,73.485 26.605,73.571 26.443,72.943 C26.275,72.29 26.218,71.815 26.508,71.565 C26.753,71.354 27.833,70.945 28.426,70.719 C28.458,70.706 28.456,70.685 28.426,70.678 C28.262,70.632 28.102,70.532 28.081,70.33 C28.066,70.204 28.092,70.032 28.235,69.948 C27.941,69.631 27.36,69.409 27.053,69.409 C25.878,69.409 24.882,71.001 24.405,71.001 C24.345,71.001 24.268,70.978 24.198,70.877 C24.182,70.855 24.166,70.853 24.166,70.89 C24.166,71.37 24.42,71.413 24.556,71.413 C24.632,71.414 24.715,71.39 24.774,71.356 C24.79,71.347 24.797,71.353 24.797,71.371 C24.797,71.391 24.793,71.438 24.793,71.472 C24.793,72.038 25.385,72.657 25.385,72.657 C25.118,72.936 24.449,73.403 24.262,73.154 C24.182,73.054 23.832,72.423 23.364,72.925 C23.347,72.943 23.358,72.965 23.39,72.965 C23.654,72.965 23.859,73.144 23.789,73.417 C23.409,73.114 22.885,73.163 22.885,73.862 C22.885,73.89 22.913,73.895 22.926,73.876 C23.176,73.517 23.572,73.76 23.629,73.811 C23.364,73.852 22.904,74.163 23.308,74.716 C23.325,74.74 23.341,74.734 23.343,74.716 C23.385,74.352 23.606,74.291 23.786,74.291 C24.157,74.291 24.428,74.632 24.711,74.269 C24.813,74.743 25.339,74.698 25.467,74.677 Z M12.485,74.269 C12.769,74.632 13.04,74.291 13.411,74.291 C13.591,74.291 13.813,74.352 13.854,74.716 C13.856,74.734 13.872,74.74 13.889,74.716 C14.293,74.163 13.833,73.852 13.568,73.811 C13.625,73.76 14.021,73.517 14.271,73.876 C14.285,73.895 14.312,73.89 14.312,73.862 C14.312,73.163 13.788,73.114 13.409,73.417 C13.337,73.144 13.543,72.965 13.807,72.965 C13.839,72.965 13.85,72.943 13.833,72.925 C13.365,72.423 13.015,73.054 12.935,73.154 C12.748,73.403 12.079,72.936 11.812,72.657 C11.812,72.657 12.403,72.038 12.403,71.472 C12.403,71.438 12.399,71.391 12.399,71.371 C12.399,71.353 12.407,71.347 12.423,71.356 C12.482,71.39 12.565,71.414 12.641,71.413 C12.776,71.413 13.032,71.37 13.032,70.89 C13.032,70.853 13.015,70.855 13,70.877 C12.929,70.978 12.852,71.001 12.792,71.001 C12.315,71.001 11.318,69.409 10.144,69.409 C9.837,69.409 9.256,69.631 8.962,69.948 C9.104,70.032 9.131,70.204 9.117,70.33 C9.095,70.532 8.935,70.632 8.771,70.678 C8.742,70.685 8.739,70.706 8.771,70.719 C9.364,70.945 10.444,71.354 10.689,71.565 C10.979,71.815 10.922,72.29 10.754,72.943 C10.592,73.571 10.245,73.485 10.117,73.465 C10.098,73.462 10.092,73.474 10.104,73.488 C10.257,73.682 10.443,73.746 10.603,73.746 C10.911,73.746 11.026,73.555 11.186,73.555 C11.454,73.555 12.016,73.939 12.016,74.232 C12.016,74.396 11.888,74.546 11.722,74.653 C11.711,74.661 11.713,74.674 11.729,74.677 C11.858,74.698 12.384,74.743 12.485,74.269 Z M18.029,64.804 C18.233,64.752 18.459,64.776 18.483,64.784 C18.515,64.795 18.514,64.844 18.478,64.849 C18.05,64.903 18.031,65.1 17.758,65.1 C17.579,65.1 17.384,64.919 17.458,64.652 C17.467,64.618 17.494,64.617 17.501,64.649 C17.529,64.765 17.695,64.89 18.029,64.804 Z M19.099,64.087 C18.809,64.069 18.623,64.134 18.632,64.227 C18.773,64.375 18.96,64.358 19.099,64.087 Z M16.657,71.636 C16.495,71.833 16.354,71.644 16.142,71.644 C15.942,71.644 15.909,71.811 15.904,71.878 C15.903,71.89 15.896,71.894 15.888,71.882 C15.662,71.573 15.914,71.405 16.062,71.383 C16.04,71.361 15.818,71.212 15.676,71.417 C15.666,71.432 15.652,71.425 15.652,71.407 C15.645,71.024 15.949,70.997 16.149,71.165 C16.185,71.02 16.091,70.923 15.929,70.915 C15.91,70.915 15.907,70.902 15.915,70.894 C15.982,70.82 16.048,70.787 16.115,70.787 C16.328,70.787 16.355,71.057 16.494,71.057 C16.703,71.057 16.999,70.775 17.027,70.745 C17.021,70.729 16.821,70.188 16.861,69.864 C16.863,69.851 16.855,69.849 16.846,69.854 C16.746,69.911 16.489,69.909 16.489,69.594 C16.489,69.568 16.497,69.566 16.511,69.587 C16.623,69.742 16.805,69.567 16.896,69.465 C16.995,69.355 17.52,68.59 18.222,68.59 C18.376,68.591 18.575,68.675 18.735,68.786 C18.493,69.081 18.733,69.363 18.913,69.327 C18.934,69.323 18.938,69.343 18.918,69.35 C17.991,69.698 17.576,69.838 17.576,70.614 C17.576,71.019 17.715,71.244 17.953,71.191 C17.971,71.186 17.976,71.194 17.963,71.208 C17.877,71.311 17.777,71.345 17.695,71.345 C17.502,71.345 17.468,71.239 17.364,71.239 C17.258,71.239 16.913,71.442 16.913,71.612 C16.913,71.677 16.953,71.764 17.075,71.844 C17.083,71.849 17.079,71.855 17.072,71.856 C16.994,71.871 16.72,71.894 16.657,71.636 Z M15.404,68.339 L15.042,68.245 L15.011,68.29 L14.591,68.105 C14.591,68.105 14.901,68.103 14.967,68.102 C15.002,68.102 15.004,68.08 14.986,68.062 C14.814,67.894 14.665,67.748 14.665,67.748 C14.665,67.748 14.835,67.811 15.08,67.902 C15.107,67.912 15.118,67.892 15.104,67.873 C14.987,67.7 14.828,67.468 14.828,67.468 C14.828,67.468 15.166,67.694 15.235,67.74 C15.257,67.756 15.274,67.741 15.265,67.719 C15.175,67.495 15.072,67.242 15.072,67.242 L15.444,67.593 C15.461,67.608 15.48,67.6 15.475,67.576 C15.439,67.409 15.373,67.1 15.373,67.1 L15.645,67.498 C15.661,67.521 15.682,67.515 15.682,67.487 C15.684,67.409 15.691,67.052 15.691,67.052 C15.691,67.052 15.806,67.315 15.864,67.45 C15.875,67.477 15.896,67.479 15.911,67.444 C15.929,67.401 16.051,67.107 16.051,67.107 L16.067,67.561 L16.006,67.572 L15.93,68.118 C16.471,67.991 17.145,67.066 17.662,67.066 C18.277,67.066 18.5,67.787 19.638,67.422 C19.924,67.847 20.025,68.216 20.136,68.727 C20.574,69.14 21.191,69.002 21.191,68.564 C21.191,67.976 20.549,67.863 20.549,67.249 C20.549,66.975 20.741,66.58 21.266,66.58 C21.543,66.58 21.95,66.699 22.184,66.699 C22.461,66.699 22.521,66.498 22.552,66.415 C22.577,66.352 22.653,66.373 22.646,66.422 C22.636,66.479 22.678,66.56 22.678,66.691 C22.678,67.08 22.112,67.131 22.042,67.083 C22.013,67.062 21.992,67.094 22.013,67.11 C22.098,67.179 22.079,67.41 21.978,67.558 C21.965,67.574 21.95,67.571 21.946,67.556 C21.886,67.277 21.559,66.934 21.271,66.934 C21.166,66.934 20.955,66.995 20.955,67.239 C20.955,67.589 21.655,67.907 21.655,68.632 C21.655,69.385 20.909,69.565 20.159,69.378 C20.185,70.091 21.249,70.515 21.274,70.005 C21.276,69.97 21.295,69.991 21.306,70.006 C21.464,70.224 21.392,70.39 21.19,70.474 C21.376,70.558 21.409,70.932 21.464,71.155 C21.545,71.49 21.901,71.305 21.918,71.295 C21.938,71.283 21.944,71.294 21.937,71.315 C21.802,71.664 21.444,71.532 21.444,71.532 C21.257,71.664 21.483,71.782 21.653,71.833 C21.679,71.84 21.677,71.858 21.657,71.866 C21.532,71.912 21.264,71.996 21.134,71.771 C21.038,72.004 20.839,71.997 20.763,71.997 C20.625,71.997 20.534,72.138 20.566,72.325 C20.569,72.342 20.558,72.347 20.545,72.337 C20.218,72.12 20.406,71.865 20.538,71.802 C20.515,71.788 20.29,71.694 20.194,71.958 C20.187,71.978 20.174,71.979 20.167,71.96 C20.024,71.58 20.336,71.47 20.561,71.565 C20.545,71.512 20.427,71.326 20.132,71.386 C20.119,71.39 20.11,71.384 20.118,71.365 C20.167,71.249 20.313,71.077 20.581,71.251 C20.718,71.336 20.954,71.212 20.976,71.201 C20.499,70.253 19.573,71.047 19.366,70.304 C19.362,70.288 19.344,70.274 19.331,70.315 C19.282,70.474 18.878,70.484 18.804,70.173 C18.798,70.148 18.807,70.145 18.823,70.161 C18.882,70.221 19.009,70.274 19.176,70.033 C19.286,69.874 19.302,69.661 19.302,69.517 C19.302,68.939 18.726,67.972 17.827,67.972 C17.259,67.972 16.649,68.193 16.196,68.523 L16.618,68.62 C16.578,69.047 16.167,69.295 15.791,69.19 L15.856,68.702 C15.791,68.723 15.625,68.781 15.537,68.907 C15.53,68.917 15.517,68.914 15.514,68.903 C15.437,68.627 15.666,68.487 15.737,68.451 C15.745,68.446 15.744,68.44 15.729,68.44 C15.525,68.433 15.41,68.583 15.377,68.635 C15.372,68.643 15.363,68.641 15.361,68.634 C15.344,68.583 15.308,68.44 15.404,68.339 Z M18.599,77.29 C22.181,77.29 25.818,77.477 26.293,78.018 C26.332,78.061 26.347,78.017 26.347,77.984 L26.348,76.086 C26.348,75.532 22.595,75.21 18.599,75.21 C14.602,75.21 10.849,75.532 10.849,76.086 L10.85,77.984 C10.85,78.017 10.866,78.061 10.904,78.018 C11.379,77.477 15.017,77.29 18.599,77.29 Z M24.443,78.138 L24.443,78.961 C24.443,80.36 26.748,79.048 28.972,78.906 C30.819,78.785 31.334,79.257 31.334,79.257 L30.996,77.39 C30.978,77.288 30.579,77.001 29.305,77.001 C27.773,77.001 27.004,77.294 26.724,77.393 L26.724,78.373 C26.724,78.597 26.612,78.706 26.442,78.774 C26.442,78.692 26.186,78.138 24.443,78.138 Z M10.755,78.774 C10.585,78.706 10.473,78.597 10.473,78.373 L10.473,77.393 C10.192,77.294 9.424,77.001 7.892,77.001 C6.619,77.001 6.22,77.288 6.201,77.39 L5.863,79.257 C5.863,79.257 6.378,78.785 8.225,78.906 C10.45,79.048 12.754,80.36 12.754,78.961 L12.754,78.138 C11.011,78.138 10.755,78.692 10.755,78.774 Z M14.997,62.598 C14.462,62.715 14.078,62.825 13.906,62.878 C13.915,62.642 14.005,62.423 14.215,62.374 C14.242,62.367 14.249,62.331 14.224,62.314 C13.748,61.998 13.492,62.604 13.485,62.624 C13.316,62.611 13.059,62.664 13.059,62.893 C13.059,63.575 11.497,63.954 11.135,64.01 C11.773,64.256 12.039,65.06 12.039,65.06 C12.501,64.597 13.043,64.188 13.162,64.188 C13.285,64.188 13.332,64.343 13.342,64.435 C13.345,64.465 13.373,64.475 13.392,64.448 C13.634,64.087 13.518,64.005 13.499,63.898 C13.483,63.814 13.507,63.498 13.861,63.535 L13.861,68.091 L13.679,68.127 C13.596,68.142 12.93,67.575 12.167,67.048 C11.404,66.52 10.995,66.836 10.125,67.307 C8.987,67.923 7.835,67.364 7.835,67.364 C6.854,68.065 6.52,70.093 6.52,70.093 C6.325,70.177 6,70.265 5.693,70.265 C4.944,70.265 4.807,69.811 4.807,69.54 C4.807,68.384 6.254,67.888 6.254,66.748 C6.254,66.472 6.127,65.347 4.736,65.347 C4.558,65.347 3.496,65.345 3.491,65.345 C2.97,65.345 2.839,64.97 2.767,64.826 C2.739,64.77 2.686,64.803 2.706,64.847 C2.746,64.942 2.646,65.088 2.646,65.377 C2.646,65.84 2.918,66.118 3.424,66.118 C3.655,66.118 3.872,66.053 3.942,66.011 C3.989,65.983 4.014,66.028 3.992,66.054 C3.771,66.311 3.753,66.794 3.844,66.911 C3.866,66.939 3.893,66.932 3.898,66.909 C4.02,66.42 4.478,65.958 5.095,65.958 C5.85,65.958 5.846,66.6 5.846,66.755 C5.846,67.683 4.216,68.363 4.216,69.639 C4.216,70.933 5.583,71.21 6.375,71.005 C6.329,72.3 4.846,72.741 4.801,71.814 C4.798,71.77 4.766,71.76 4.742,71.818 C4.554,72.276 4.628,72.679 5.206,72.807 C5.245,72.816 5.226,72.838 5.19,72.862 C4.619,73.226 4.928,74.653 4.957,75.073 C5,75.679 4.397,75.606 4.348,75.589 C4.323,75.579 4.299,75.592 4.337,75.64 C4.764,76.163 5.292,75.685 5.292,75.685 C5.69,75.81 5.443,76.149 5.177,76.327 C5.136,76.355 5.139,76.383 5.184,76.386 C5.244,76.39 5.86,76.441 5.97,75.95 C6.243,76.276 6.645,76.157 6.729,76.114 C6.848,76.054 7.425,75.844 7.483,76.493 C7.486,76.54 7.514,76.51 7.533,76.485 C7.969,75.936 7.501,75.598 7.242,75.558 C7.263,75.527 7.613,75.237 7.927,75.64 C7.948,75.667 7.968,75.673 7.972,75.618 C8.008,74.922 7.442,74.858 7.075,75.161 C7.058,75.09 6.936,74.698 7.49,74.712 C7.503,74.712 7.529,74.692 7.501,74.665 C7.072,74.211 6.718,74.624 6.636,74.723 C6.445,74.948 5.968,74.858 5.924,74.852 C6.074,72.433 8.206,73.29 8.499,72.114 C8.512,72.052 8.54,72.075 8.546,72.098 C8.626,72.385 9.35,72.425 9.483,71.859 C9.49,71.824 9.486,71.797 9.46,71.823 C8.843,72.439 7.454,70.513 9.35,68.947 C10.969,67.612 12.42,68.356 12.972,68.796 C13.001,68.989 12.886,69.052 12.813,69.075 C12.786,69.083 12.778,69.107 12.82,69.124 C12.974,69.183 13.191,69.164 13.293,69.019 C13.641,69.263 13.343,69.568 13.203,69.653 C13.167,69.676 13.183,69.699 13.212,69.705 C13.532,69.763 13.794,69.436 13.807,69.249 L13.861,69.279 L13.861,70.654 C13.861,72.612 16.12,72.884 18.599,74.544 C21.077,72.884 23.336,72.612 23.336,70.654 L23.336,69.279 L23.39,69.249 C23.403,69.436 23.666,69.763 23.985,69.705 C24.015,69.699 24.03,69.676 23.995,69.653 C23.854,69.568 23.556,69.263 23.904,69.019 C24.005,69.164 24.223,69.183 24.377,69.124 C24.419,69.107 24.411,69.083 24.384,69.075 C24.311,69.052 24.196,68.989 24.225,68.796 C24.777,68.356 26.228,67.612 27.847,68.947 C29.744,70.513 28.354,72.439 27.737,71.823 C27.711,71.797 27.707,71.824 27.714,71.859 C27.847,72.425 28.571,72.385 28.651,72.098 C28.657,72.075 28.685,72.052 28.699,72.114 C28.992,73.29 31.124,72.433 31.273,74.852 C31.229,74.858 30.752,74.948 30.561,74.723 C30.479,74.624 30.125,74.211 29.696,74.665 C29.667,74.692 29.694,74.712 29.708,74.712 C30.261,74.698 30.139,75.09 30.122,75.161 C29.755,74.858 29.188,74.922 29.225,75.618 C29.229,75.673 29.249,75.667 29.27,75.64 C29.584,75.237 29.934,75.527 29.956,75.558 C29.696,75.598 29.228,75.936 29.665,76.485 C29.683,76.51 29.71,76.54 29.714,76.493 C29.771,75.844 30.349,76.054 30.468,76.114 C30.553,76.157 30.954,76.276 31.227,75.95 C31.336,76.441 31.954,76.39 32.013,76.386 C32.058,76.383 32.061,76.355 32.02,76.327 C31.754,76.149 31.507,75.81 31.906,75.685 C31.906,75.685 32.433,76.163 32.86,75.64 C32.897,75.592 32.874,75.579 32.849,75.589 C32.8,75.606 32.197,75.679 32.241,75.073 C32.269,74.653 32.579,73.226 32.007,72.862 C31.971,72.838 31.952,72.816 31.992,72.807 C32.569,72.679 32.643,72.276 32.456,71.818 C32.431,71.76 32.399,71.77 32.396,71.814 C32.351,72.741 30.869,72.3 30.822,71.005 C31.614,71.21 32.98,70.933 32.98,69.639 C32.98,68.363 31.351,67.683 31.351,66.755 C31.351,66.6 31.347,65.958 32.102,65.958 C32.719,65.958 33.177,66.42 33.299,66.909 C33.304,66.932 33.332,66.939 33.353,66.911 C33.444,66.794 33.426,66.311 33.206,66.054 C33.183,66.028 33.208,65.983 33.255,66.011 C33.325,66.053 33.542,66.118 33.772,66.118 C34.279,66.118 34.551,65.84 34.551,65.377 C34.551,65.088 34.451,64.942 34.491,64.847 C34.511,64.803 34.458,64.77 34.43,64.826 C34.357,64.97 34.227,65.345 33.707,65.345 C33.702,65.345 32.64,65.347 32.461,65.347 C31.07,65.347 30.942,66.472 30.942,66.748 C30.942,67.888 32.39,68.384 32.39,69.54 C32.39,69.811 32.253,70.265 31.503,70.265 C31.196,70.265 30.872,70.177 30.677,70.093 C30.677,70.093 30.343,68.065 29.362,67.364 C29.362,67.364 28.21,67.923 27.073,67.307 C26.203,66.836 25.792,66.52 25.03,67.048 C24.267,67.575 23.601,68.142 23.518,68.127 L23.336,68.091 L23.336,63.535 C23.689,63.498 23.714,63.814 23.699,63.898 C23.679,64.005 23.563,64.087 23.805,64.448 C23.824,64.475 23.852,64.465 23.855,64.435 C23.865,64.343 23.912,64.188 24.035,64.188 C24.154,64.188 24.696,64.597 25.159,65.06 C25.159,65.06 25.424,64.256 26.062,64.01 C25.7,63.954 24.138,63.575 24.138,62.893 C24.138,62.664 23.881,62.611 23.712,62.624 C23.705,62.604 23.449,61.998 22.973,62.314 C22.948,62.331 22.955,62.367 22.982,62.374 C23.192,62.423 23.282,62.642 23.291,62.878 C22.836,62.738 20.897,62.194 18.599,62.194 C17.483,62.194 16.455,62.323 15.637,62.471 L15.637,64.05 L14.997,64.05 L14.997,62.598 Z M18.599,61.132 C20.563,61.132 21.671,61.507 21.671,61.507 C21.682,60.515 21.675,59.961 22.245,60.044 C21.934,59.21 23.274,58.883 23.274,57.796 C23.274,57.08 22.768,56.999 22.618,56.999 C22.173,56.999 22.243,57.288 21.865,57.288 C21.818,57.288 21.769,57.276 21.769,57.311 C21.769,57.436 21.875,57.649 22.049,57.649 C22.282,57.649 22.287,57.417 22.459,57.417 C22.534,57.417 22.641,57.477 22.641,57.716 C22.641,58.178 22.338,58.69 21.981,59.087 C21.899,58.974 21.787,58.903 21.653,58.903 C21.442,58.903 21.256,59.124 21.256,59.396 C21.256,59.497 21.272,59.57 21.309,59.655 C21.19,59.722 21.084,59.76 21.004,59.76 C20.843,59.76 20.6,59.694 20.6,59.341 C20.6,58.554 21.656,57.86 21.656,56.862 C21.656,56.386 21.337,55.911 20.672,55.911 C19.959,55.911 20.092,56.562 19.475,56.562 C19.446,56.562 19.424,56.571 19.424,56.597 C19.424,56.638 19.531,56.998 19.85,56.998 C20.192,56.998 20.288,56.407 20.59,56.407 C20.704,56.407 20.873,56.474 20.873,56.874 C20.873,57.186 20.718,57.688 20.497,58.171 C20.417,58.091 20.308,58.032 20.186,58.032 C19.921,58.032 19.731,58.288 19.731,58.594 C19.731,58.787 19.807,58.974 19.938,59.097 C19.783,59.296 19.624,59.458 19.408,59.458 C18.981,59.458 18.793,59.216 18.793,58.952 C18.793,58.667 19.313,58.563 19.313,58.118 C19.313,57.815 19.117,57.644 18.927,57.644 C18.724,57.644 18.619,57.779 18.599,57.779 C18.578,57.779 18.473,57.644 18.27,57.644 C18.08,57.644 17.883,57.815 17.883,58.118 C17.883,58.563 18.404,58.667 18.404,58.952 C18.404,59.216 18.216,59.458 17.79,59.458 C17.573,59.458 17.414,59.296 17.258,59.097 C17.39,58.974 17.466,58.787 17.466,58.594 C17.466,58.288 17.276,58.032 17.011,58.032 C16.889,58.032 16.78,58.091 16.7,58.171 C16.479,57.688 16.325,57.186 16.325,56.874 C16.325,56.474 16.494,56.407 16.607,56.407 C16.909,56.407 17.005,56.998 17.347,56.998 C17.667,56.998 17.773,56.638 17.773,56.597 C17.773,56.571 17.75,56.562 17.722,56.562 C17.105,56.562 17.238,55.911 16.525,55.911 C15.86,55.911 15.542,56.386 15.542,56.862 C15.542,57.86 16.597,58.554 16.597,59.341 C16.597,59.694 16.354,59.76 16.193,59.76 C16.113,59.76 16.007,59.722 15.888,59.655 C15.924,59.57 15.94,59.497 15.94,59.396 C15.94,59.124 15.755,58.903 15.543,58.903 C15.41,58.903 15.298,58.974 15.216,59.087 C14.858,58.69 14.556,58.178 14.556,57.716 C14.556,57.477 14.664,57.417 14.738,57.417 C14.911,57.417 14.916,57.649 15.148,57.649 C15.321,57.649 15.428,57.436 15.428,57.311 C15.428,57.276 15.379,57.288 15.333,57.288 C14.954,57.288 15.024,56.999 14.579,56.999 C14.429,56.999 13.923,57.08 13.923,57.796 C13.923,58.883 15.264,59.21 14.953,60.044 C15.522,59.961 15.515,60.515 15.525,61.507 C15.525,61.507 16.634,61.132 18.599,61.132 Z M18.599,56.412 C18.328,56.412 18.108,56.631 18.108,56.902 C18.108,57.173 18.328,57.393 18.599,57.393 C18.869,57.393 19.089,57.173 19.089,56.902 C19.089,56.631 18.869,56.412 18.599,56.412 Z M18.353,53.423 C18.353,53.541 18.403,53.644 18.444,53.702 C18.526,53.819 18.514,53.884 18.475,53.923 C18.436,53.962 18.371,53.975 18.253,53.893 C18.196,53.852 18.093,53.801 17.975,53.801 C17.772,53.801 17.672,53.934 17.672,54.047 C17.672,54.16 17.772,54.293 17.975,54.293 C18.093,54.293 18.196,54.242 18.253,54.201 C18.371,54.119 18.436,54.132 18.475,54.171 C18.514,54.209 18.457,54.615 18.411,54.935 C18.077,55.005 17.916,55.272 17.916,55.429 C17.916,55.831 18.346,56.063 18.599,56.198 C18.851,56.063 19.281,55.831 19.281,55.429 C19.281,55.272 19.12,55.005 18.786,54.935 C18.74,54.615 18.684,54.209 18.722,54.171 C18.761,54.132 18.826,54.119 18.943,54.201 C19.001,54.242 19.104,54.293 19.222,54.293 C19.424,54.293 19.524,54.16 19.524,54.047 C19.524,53.934 19.424,53.801 19.222,53.801 C19.104,53.801 19.001,53.852 18.943,53.893 C18.826,53.975 18.761,53.962 18.722,53.923 C18.684,53.884 18.67,53.819 18.753,53.702 C18.793,53.644 18.845,53.541 18.845,53.423 C18.845,53.221 18.712,53.12 18.599,53.12 C18.485,53.12 18.353,53.221 18.353,53.423 Z M28.225,61.288 C28.125,61.757 27.71,61.822 27.456,61.538 C27.477,61.313 27.702,61.261 28.225,61.288 Z M31.257,63.934 C31.257,63.886 31.236,63.894 31.216,63.903 C30.815,64.104 30.597,63.673 30.695,63.227 C30.75,62.979 30.967,62.307 30.421,61.761 C29.885,62.067 29.524,61.563 29.616,61.319 C29.641,61.255 29.683,61.244 29.683,61.327 C29.683,61.498 29.855,61.622 29.979,61.622 C30.196,61.622 30.59,61.38 30.624,61.013 C30.069,60.648 29.132,60.796 28.946,61.481 C28.922,61.567 28.819,61.56 28.826,61.474 C28.829,61.415 28.854,61.009 29.258,60.804 C29.624,60.62 29.491,60.348 29.394,60.251 C29.354,60.211 29.28,60.219 29.304,60.26 C29.445,60.503 29.144,60.612 28.726,60.561 C27.843,60.442 27.552,60.77 27.505,60.998 C27.312,61.048 26.562,61.469 26.562,61.625 C26.562,61.673 26.605,61.784 26.676,61.817 C26.676,61.817 26.659,62.136 26.893,62.345 C27.832,61.777 28.092,62.308 27.996,62.683 C27.996,62.683 27.83,62.818 27.197,62.819 C27.197,62.819 27.227,63.048 27.281,63.112 C27.281,63.112 27.136,63.294 27.239,63.462 C27.239,63.462 27.563,63.218 28.125,63.243 C28.125,63.243 28.483,63.79 27.151,64.047 C25.816,64.303 25.393,65.564 25.393,66.255 C25.393,66.288 25.407,66.308 25.438,66.302 C26.518,66.101 27.012,67.22 28.413,67.093 C28.291,66.764 28.425,66.419 28.425,66.419 C28.536,66.716 28.8,66.909 28.989,67.01 C29.486,66.898 29.813,66.661 29.888,66.519 C29.888,66.519 29.36,66.081 29.705,65.292 C29.705,65.292 30.037,65.818 30.722,65.532 C30.784,65.506 30.77,65.466 30.729,65.452 C29.8,65.152 30.405,64.368 30.461,64.29 C30.892,64.53 31.257,64.214 31.257,63.934 Z M25.989,62.632 C25.715,62.632 25.457,62.511 25.407,62.3 C25.396,62.246 25.35,62.227 25.329,62.307 C25.199,62.779 25.532,63.001 25.859,63.001 C26.219,63.001 26.421,62.743 26.933,62.655 C27.159,62.617 27.313,62.652 27.313,62.584 C27.313,62.516 26.981,62.515 26.933,62.515 C26.4,62.515 26.327,62.632 25.989,62.632 Z M9.742,61.538 C9.487,61.822 9.072,61.757 8.972,61.288 C9.496,61.261 9.721,61.313 9.742,61.538 Z M6.736,64.29 C6.792,64.368 7.396,65.152 6.468,65.452 C6.427,65.466 6.413,65.506 6.475,65.532 C7.161,65.818 7.493,65.292 7.493,65.292 C7.837,66.081 7.309,66.519 7.309,66.519 C7.383,66.661 7.711,66.898 8.208,67.01 C8.396,66.909 8.662,66.716 8.772,66.419 C8.772,66.419 8.906,66.764 8.784,67.093 C10.185,67.22 10.68,66.101 11.758,66.302 C11.79,66.308 11.804,66.288 11.804,66.255 C11.804,65.564 11.381,64.303 10.046,64.047 C8.714,63.79 9.073,63.243 9.073,63.243 C9.634,63.218 9.958,63.462 9.958,63.462 C10.061,63.294 9.917,63.112 9.917,63.112 C9.97,63.048 10,62.819 10,62.819 C9.368,62.818 9.202,62.683 9.202,62.683 C9.104,62.308 9.365,61.777 10.304,62.345 C10.539,62.136 10.521,61.817 10.521,61.817 C10.592,61.784 10.636,61.673 10.636,61.625 C10.636,61.469 9.885,61.048 9.692,60.998 C9.645,60.77 9.354,60.442 8.471,60.561 C8.054,60.612 7.752,60.503 7.893,60.26 C7.917,60.219 7.842,60.211 7.803,60.251 C7.707,60.348 7.573,60.62 7.938,60.804 C8.343,61.009 8.368,61.415 8.371,61.474 C8.378,61.56 8.274,61.567 8.251,61.481 C8.065,60.796 7.128,60.648 6.574,61.013 C6.606,61.38 7.001,61.622 7.217,61.622 C7.342,61.622 7.514,61.498 7.514,61.327 C7.514,61.244 7.557,61.255 7.581,61.319 C7.673,61.563 7.312,62.067 6.775,61.761 C6.23,62.307 6.448,62.979 6.502,63.227 C6.6,63.673 6.382,64.104 5.981,63.903 C5.96,63.894 5.94,63.886 5.94,63.934 C5.94,64.214 6.305,64.53 6.736,64.29 Z M10.264,62.515 C10.215,62.515 9.884,62.516 9.884,62.584 C9.884,62.652 10.038,62.617 10.264,62.655 C10.776,62.743 10.979,63.001 11.338,63.001 C11.665,63.001 11.999,62.779 11.869,62.307 C11.847,62.227 11.801,62.246 11.791,62.3 C11.741,62.511 11.481,62.632 11.208,62.632 C10.87,62.632 10.797,62.515 10.264,62.515 Z M21.487,65.579 L22.128,65.579 L22.128,63.802 L21.487,63.802 L21.487,65.579 Z M18.599,73.411 L19.239,73.411 L19.239,71.635 L18.599,71.635 L18.599,73.411 Z" id="Fill-2" fill="#FFFFFE"></path>
    </g>
</svg>